<?xml version="1.0" encoding="UTF-8" standalone="no"?>
<!DOCTYPE svg PUBLIC "-//W3C//DTD SVG 1.1//EN" "http://www.w3.org/Graphics/SVG/1.1/DTD/svg11.dtd">
<svg width="100%" height="100%" viewBox="0 0 4000 4000" version="1.1" xmlns="http://www.w3.org/2000/svg"
    xmlns:xlink="http://www.w3.org/1999/xlink" xml:space="preserve" xmlns:serif="http://www.serif.com/"
    style="fill-rule:evenodd;clip-rule:evenodd;stroke-linecap:round;stroke-linejoin:round;stroke-miterlimit:1.5;">
    <g id="Livello4">
        <rect x="465.709" y="94.296" width="3115.96" height="3800.04" style="fill:#5059c9;" />
        <path
            d="M3581.67,94.296l-3115.96,-0l-0,3800.04l3115.96,-0l-0,-3800.04Zm-2934.56,181.398l-0,3437.24l2753.16,0l-0,-3437.24l-2753.16,-0Z"
            style="fill:#fff;" />
        <rect x="465.709" y="94.296" width="3115.96" height="3800.04" style="fill:url(#_Linear1);" />
        <path
            d="M3581.67,94.296l-3115.96,-0l-0,3800.04l3115.96,-0l-0,-3800.04Zm-2934.56,181.398l-0,3437.24l2753.16,0l-0,-3437.24l-2753.16,-0Z"
            style="fill:#fff;" />
        <rect x="832.477" y="454.794" width="2391.83" height="2153.59" style="fill:#7b83eb;" />
        <path
            d="M3224.3,454.794l-2391.83,0l-0,2153.59l2391.83,0l-0,-2153.59Zm-2189.14,202.688l-0,1748.21l1986.45,0l-0,-1748.21l-1986.45,0Z"
            style="fill:#fff;" />
        <rect x="832.477" y="454.794" width="2391.83" height="2153.59" style="fill:url(#_Linear2);" />
        <path
            d="M3224.3,454.794l-2391.83,0l-0,2153.59l2391.83,0l-0,-2153.59Zm-2189.14,202.688l-0,1748.21l1986.45,0l-0,-1748.21l-1986.45,0Z"
            style="fill:#fff;" />
        <g>
            <ellipse cx="3178.55" cy="2706.69" rx="625.259" ry="618.86" style="fill:#86db4b;" />
            <path
                d="M3178.55,1921.16c-437.546,-0 -791.925,352.458 -791.925,785.526c0,433.069 354.379,785.527 791.925,785.527c437.547,-0 791.926,-352.458 791.926,-785.527c-0,-433.068 -354.379,-785.526 -791.926,-785.526Zm0,166.666c345.09,0 625.259,277.302 625.259,618.86c0,341.558 -280.169,618.86 -625.259,618.86c-345.089,0 -625.258,-277.302 -625.258,-618.86c-0,-341.558 280.169,-618.86 625.258,-618.86Z"
                style="fill:#fff;" />
            <ellipse cx="3178.55" cy="2706.69" rx="625.259" ry="618.86" style="fill:url(#_Linear3);" />
            <path
                d="M3178.55,1921.16c-437.546,-0 -791.925,352.458 -791.925,785.526c0,433.069 354.379,785.527 791.925,785.527c437.547,-0 791.926,-352.458 791.926,-785.527c-0,-433.068 -354.379,-785.526 -791.926,-785.526Zm0,166.666c345.09,0 625.259,277.302 625.259,618.86c0,341.558 -280.169,618.86 -625.259,618.86c-345.089,0 -625.258,-277.302 -625.258,-618.86c-0,-341.558 280.169,-618.86 625.258,-618.86Z"
                style="fill:#fff;" />
            <path d="M2920.61,2717.34l188.086,169.277l338.555,-322.881"
                style="fill:none;stroke:#fff;stroke-width:166.67px;" />
        </g>
        <g>
            <path d="M1618.52,1073.91l0,159.873" style="fill:none;stroke:#fff;stroke-width:197.96px;" />
            <path d="M2178.07,1205.34l84.639,-90.909c21.21,-3.582 207.03,-6.321 228.054,-1.567l113.636,105.015"
                style="fill:none;stroke:#fff;stroke-width:197.96px;" />
            <path d="M1578.55,1914.81l229.895,-0l401.318,-2.475l321.756,-262.949"
                style="fill:none;stroke:#fff;stroke-width:197.96px;" />
        </g>
    </g>
    <defs>
        <linearGradient id="_Linear1" x1="0" y1="0" x2="1" y2="0" gradientUnits="userSpaceOnUse"
            gradientTransform="matrix(2631.48,3023.02,-3023.02,2631.48,708.996,365.094)">
            <stop offset="0" style="stop-color:#5059c9;stop-opacity:1" />
            <stop offset="1" style="stop-color:#121270;stop-opacity:1" />
        </linearGradient>
        <linearGradient id="_Linear2" x1="0" y1="0" x2="1" y2="0" gradientUnits="userSpaceOnUse"
            gradientTransform="matrix(3082.2,3337.16,-3337.16,3082.2,1187.03,793.051)">
            <stop offset="0" style="stop-color:#7b83eb;stop-opacity:1" />
            <stop offset="1" style="stop-color:#0212ea;stop-opacity:1" />
        </linearGradient>
        <linearGradient id="_Linear3" x1="0" y1="0" x2="1" y2="0" gradientUnits="userSpaceOnUse"
            gradientTransform="matrix(710.227,764.86,-764.86,710.227,2821.47,2281.8)">
            <stop offset="0" style="stop-color:#86db4b;stop-opacity:1" />
            <stop offset="1" style="stop-color:#519a1e;stop-opacity:1" />
        </linearGradient>
    </defs>
</svg>