<?xml version="1.0" encoding="UTF-8" standalone="no"?>
<!DOCTYPE svg PUBLIC "-//W3C//DTD SVG 1.1//EN" "http://www.w3.org/Graphics/SVG/1.1/DTD/svg11.dtd">
<svg width="100%" height="100%" viewBox="0 0 1280 960" version="1.1" xmlns="http://www.w3.org/2000/svg" xmlns:xlink="http://www.w3.org/1999/xlink" xml:space="preserve" xmlns:serif="http://www.serif.com/" style="fill-rule:evenodd;clip-rule:evenodd;stroke-linecap:round;stroke-linejoin:round;stroke-miterlimit:1.5;">
    <g id="Livello3">
        <g>
            <g transform="matrix(0.939745,0,0,0.949015,-107.828,25.7939)">
                <circle cx="687.133" cy="209.65" r="120.699" style="fill:rgb(123,131,235);"/>
            </g>
            <g transform="matrix(1,0,0,1,-99.021,8.95101)">
                <path d="M439.274,646.683C436.836,638.776 435.524,630.379 435.524,621.678L435.524,451.888C435.524,405.033 473.565,366.993 520.42,366.993L753.426,366.993C800.281,366.993 838.322,405.033 838.322,451.888L838.322,612.383L838.322,612.448L838.322,612.512L838.322,621.678C838.322,627.47 837.74,633.126 836.634,638.59C823.798,737.187 739.403,813.427 637.343,813.427C538.088,813.427 455.542,741.322 439.274,646.683Z" style="fill:rgb(123,131,235);"/>
            </g>
        </g>
        <g transform="matrix(1.12731,0,0,1.12731,295.993,328.845)">
            <circle cx="357.762" cy="288.671" r="151.608" style="fill:rgb(134,219,75);"/>
        </g>
        <g transform="matrix(1,0,0,1,485.035,362.517)">
            <path d="M109.371,286.434L193.287,374.825L389.65,197.483" style="fill:none;stroke:white;stroke-width:46.37px;"/>
        </g>
    </g>
</svg>
